<?xml version="1.0" encoding="utf-8"?>
<!-- Generator: Adobe Illustrator 14.0.0, SVG Export Plug-In . SVG Version: 6.00 Build 43363)  -->
<!DOCTYPE svg PUBLIC "-//W3C//DTD SVG 1.1//EN" "http://www.w3.org/Graphics/SVG/1.1/DTD/svg11.dtd">
<svg version="1.1" id="Camada_1" xmlns="http://www.w3.org/2000/svg" xmlns:xlink="http://www.w3.org/1999/xlink" x="0px" y="0px"
	 width="385px" height="347px" viewBox="0 0 385 347" enable-background="new 0 0 385 347" xml:space="preserve">
<g>
	<defs>
		<rect id="SVGID_1_" x="-240.445" y="-122.141" width="841.89" height="595.28"/>
	</defs>
	<clipPath id="SVGID_2_">
		<use xlink:href="#SVGID_1_"  overflow="visible"/>
	</clipPath>
	<path clip-path="url(#SVGID_2_)" fill="#006EAB" d="M47.419,27.989h7.257v1.05l-0.445,4.615c-0.892,4.202-5.243,6.301-13.052,6.301
		c-5.73,0-9.536-1.033-11.426-3.104c-1.89-2.067-2.833-6.233-2.833-12.492c0-6.11,0.943-10.228,2.833-12.35
		s5.558-3.184,11.013-3.184c5.26,0,8.826,0.772,10.696,2.309c1.867,1.537,2.8,4.46,2.8,8.769h-7.225
		c0-3.543-2.051-5.316-6.145-5.316c-2.907,0-4.732,0.565-5.474,1.689c-0.743,1.124-1.115,3.881-1.115,8.274
		c0,4.244,0.41,6.914,1.227,8.006c0.818,1.092,2.817,1.641,6.001,1.641c2.503,0,4.112-0.378,4.823-1.13
		C47.064,32.312,47.419,30.618,47.419,27.989"/>
	<path clip-path="url(#SVGID_2_)" fill="#006EAB" d="M78.327,29.866h7.321v1.179c0,5.943-4.457,8.91-13.37,8.91
		c-6.047,0-10.006-1.027-11.873-3.087c-1.867-2.057-2.8-6.417-2.8-13.08c0-5.923,0.975-9.898,2.927-11.936
		c1.953-2.038,5.761-3.055,11.428-3.055c5.433,0,9.073,0.991,10.916,2.974c1.848,1.986,2.772,5.885,2.772,11.698v2.228H65.053
		c-0.043,0.678-0.065,1.124-0.065,1.336c0,2.992,0.462,4.988,1.385,5.986c0.924,0.997,2.765,1.495,5.523,1.495
		c2.675,0,4.415-0.291,5.22-0.876C77.922,33.053,78.327,31.798,78.327,29.866 M78.391,21.24l-0.032-1.208
		c0-2.418-0.42-3.991-1.26-4.712c-0.837-0.72-2.658-1.081-5.458-1.081c-2.716,0-4.482,0.436-5.3,1.304
		c-0.817,0.872-1.223,2.768-1.223,5.697H78.391z"/>
	<path clip-path="url(#SVGID_2_)" fill="#006EAB" d="M90.424,9.178h7.225l-0.288,5.125l0.162,0.029
		c1.421-3.669,4.602-5.506,9.547-5.506c7.195,0,10.79,3.355,10.79,10.06v20.721h-7.29V21.272v-1.146l-0.158-2.132
		c-0.34-2.27-2.122-3.407-5.348-3.407c-4.9,0-7.351,2.325-7.351,6.973v18.047h-7.289V9.178z"/>
	<path clip-path="url(#SVGID_2_)" fill="#006EAB" d="M143.329,9.178v5.538h-11.714v15.279c0,2.82,1.072,4.231,3.214,4.231
		c2.357,0,3.532-1.705,3.532-5.122v-1.211h6.208v1.528c0,1.401-0.043,2.6-0.126,3.598c-0.404,4.647-3.863,6.969-10.377,6.969
		c-6.495,0-9.741-2.981-9.741-8.943V14.716h-3.945V9.178h3.945V2.366h7.29v6.812H143.329z"/>
	<path clip-path="url(#SVGID_2_)" fill="#006EAB" d="M147.465,9.178h7.289l-0.445,4.266l0.158,0.029
		c1.74-3.181,4.477-4.774,8.213-4.774c5.347,0,8.022,3.375,8.022,10.122v2.131h-6.876c0.084-0.826,0.126-1.365,0.126-1.621
		c0-3.245-1.262-4.87-3.788-4.87c-3.608,0-5.41,2.409-5.41,7.225v17.921h-7.289V9.178z"/>
	<path clip-path="url(#SVGID_2_)" fill="#006EAB" d="M186.808,8.826c5.878,0,9.732,0.939,11.556,2.819
		c1.824,1.876,2.735,5.839,2.735,11.888c0,6.746-0.891,11.171-2.67,13.273c-1.784,2.099-5.539,3.149-11.268,3.149
		c-6.222,0-10.245-0.975-12.083-2.926c-1.835-1.953-2.752-6.249-2.752-12.892c0-6.388,0.901-10.535,2.703-12.447
		C176.835,9.782,180.763,8.826,186.808,8.826 M186.744,14.587c-3.032,0-4.965,0.549-5.792,1.641
		c-0.829,1.091-1.243,3.642-1.243,7.653c0,4.583,0.394,7.448,1.179,8.595s2.749,1.721,5.887,1.721c3.036,0,4.951-0.607,5.745-1.815
		c0.798-1.211,1.196-4.118,1.196-8.723c0-3.882-0.413-6.365-1.244-7.447C191.646,15.129,189.737,14.587,186.744,14.587"/>
	<path clip-path="url(#SVGID_2_)" fill="#006EAB" d="M55.057,63.838v30.429h-7.289l0.413-5.219l-0.126-0.032
		c-1.421,3.733-4.689,5.599-9.805,5.599c-6.895,0-10.344-3.445-10.344-10.344V63.838h7.29v18.683c0,2.59,0.361,4.292,1.081,5.109
		c0.723,0.817,2.218,1.227,4.489,1.227c4.667,0,7.002-2.803,7.002-8.403V63.838H55.057z"/>
	<path clip-path="url(#SVGID_2_)" fill="#006EAB" d="M61.138,63.838h7.225l-0.288,5.125l0.162,0.029
		c1.422-3.669,4.602-5.506,9.547-5.506c7.195,0,10.79,3.355,10.79,10.06v20.721h-7.29V75.933v-1.146l-0.158-2.131
		c-0.339-2.271-2.122-3.408-5.348-3.408c-4.899,0-7.351,2.326-7.351,6.973v18.047h-7.289V63.838z"/>
	<path clip-path="url(#SVGID_2_)" fill="#006EAB" d="M101.692,56.897h-7.289V50.82h7.289V56.897z M101.692,94.267h-7.289V63.838
		h7.289V94.267z"/>
	<path clip-path="url(#SVGID_2_)" fill="#006EAB" d="M132.919,63.838l-8.724,30.429h-11.393l-9.169-30.429h7.734l4.012,14.036
		c0.552,1.953,1.062,3.843,1.527,5.668l0.734,2.832l0.733,2.832h0.158l0.668-2.832l0.669-2.804c0.511-2.121,0.986-4.007,1.431-5.664
		l3.756-14.068H132.919z"/>
	<path clip-path="url(#SVGID_2_)" fill="#006EAB" d="M154.503,84.527h7.321v1.179c0,5.942-4.456,8.91-13.37,8.91
		c-6.046,0-10.006-1.027-11.872-3.087c-1.867-2.058-2.8-6.417-2.8-13.08c0-5.923,0.974-9.899,2.926-11.937
		c1.954-2.038,5.761-3.055,11.429-3.055c5.432,0,9.073,0.992,10.916,2.975c1.848,1.986,2.771,5.884,2.771,11.698v2.228h-20.595
		c-0.042,0.678-0.064,1.124-0.064,1.336c0,2.991,0.462,4.987,1.384,5.985c0.924,0.998,2.766,1.495,5.524,1.495
		c2.674,0,4.415-0.291,5.219-0.875C154.099,87.714,154.503,86.459,154.503,84.527 M154.567,75.901l-0.032-1.208
		c0-2.419-0.42-3.992-1.259-4.712c-0.837-0.72-2.658-1.082-5.459-1.082c-2.716,0-4.482,0.436-5.299,1.305
		c-0.817,0.872-1.224,2.768-1.224,5.697H154.567z"/>
	<path clip-path="url(#SVGID_2_)" fill="#006EAB" d="M166.788,63.838h7.29l-0.446,4.266l0.158,0.029
		c1.741-3.181,4.477-4.774,8.213-4.774c5.348,0,8.021,3.376,8.021,10.122v2.131h-6.876c0.084-0.826,0.126-1.365,0.126-1.621
		c0-3.245-1.262-4.87-3.788-4.87c-3.607,0-5.409,2.41-5.409,7.225v17.921h-7.29V63.838z"/>
	<path clip-path="url(#SVGID_2_)" fill="#006EAB" d="M218.165,72.209h-7.132c-0.042-0.255-0.073-0.445-0.098-0.571
		c-0.148-1.467-0.564-2.377-1.255-2.739c-0.692-0.362-2.362-0.543-5.013-0.543c-3.799,0-5.696,1.234-5.696,3.695
		c0,1.676,0.332,2.674,1.001,2.991c0.668,0.32,2.932,0.571,6.795,0.765c5.199,0.252,8.584,0.943,10.153,2.067
		c1.569,1.127,2.357,3.427,2.357,6.908c0,3.714-1.047,6.285-3.135,7.719c-2.09,1.434-5.843,2.147-11.252,2.147
		c-5.201,0-8.756-0.646-10.664-1.94c-1.91-1.295-2.866-3.714-2.866-7.257v-0.766h7.576c-0.104,0.427-0.17,0.766-0.188,1.021
		c-0.299,2.693,1.781,4.04,6.234,4.04c4.606,0,6.909-1.334,6.909-4.008c0-2.568-1.444-3.853-4.328-3.853
		c-6.517,0-10.806-0.613-12.877-1.847c-2.07-1.231-3.103-3.786-3.103-7.67c0-3.479,0.942-5.836,2.833-7.067
		c1.889-1.23,5.516-1.844,10.887-1.844c5.07,0,8.479,0.594,10.234,1.782C217.29,66.428,218.165,68.751,218.165,72.209"/>
	<path clip-path="url(#SVGID_2_)" fill="#006EAB" d="M230.992,56.897h-7.29V50.82h7.29V56.897z M230.992,94.267h-7.29V63.838h7.29
		V94.267z"/>
	<path clip-path="url(#SVGID_2_)" fill="#006EAB" d="M256.49,63.838v5.539h-11.715v15.278c0,2.82,1.072,4.231,3.215,4.231
		c2.356,0,3.532-1.705,3.532-5.122v-1.211h6.207v1.528c0,1.402-0.042,2.6-0.126,3.598c-0.402,4.647-3.861,6.969-10.377,6.969
		c-6.494,0-9.74-2.981-9.74-8.943V69.377h-3.945v-5.539h3.945v-6.811h7.289v6.811H256.49z"/>
	<path clip-path="url(#SVGID_2_)" fill="#006EAB" d="M268.014,72.656h-7.448c0-3.65,0.849-6.092,2.548-7.322
		c1.696-1.231,5.062-1.847,10.089-1.847c5.476,0,9.18,0.755,11.111,2.26c1.927,1.508,2.893,4.383,2.893,8.626v19.894h-7.288
		l0.352-4.169l-0.191-0.032c-1.4,3.036-4.638,4.55-9.708,4.55c-7.362,0-11.045-3.129-11.045-9.388c0-6.324,3.767-9.485,11.3-9.485
		c5.028,0,8.084,1.156,9.166,3.469h0.127V74.28c0-2.377-0.413-3.953-1.24-4.728c-0.827-0.776-2.526-1.163-5.094-1.163
		C269.869,68.389,268.014,69.813,268.014,72.656 M272.884,80.645c-4.114,0-6.176,1.421-6.176,4.263c0,1.974,0.427,3.269,1.275,3.886
		c0.847,0.613,2.629,0.923,5.345,0.923c4.438,0,6.653-1.498,6.653-4.489C279.981,82.173,277.614,80.645,272.884,80.645
		 M279.918,50.723l2.642,4.903l-11.395,4.902l-1.593-3.023L279.918,50.723z"/>
	<path clip-path="url(#SVGID_2_)" fill="#006EAB" d="M293.352,63.838h7.289l-0.444,4.266l0.157,0.029
		c1.741-3.181,4.478-4.774,8.214-4.774c5.348,0,8.021,3.376,8.021,10.122v2.131h-6.876c0.084-0.826,0.126-1.365,0.126-1.621
		c0-3.245-1.262-4.87-3.788-4.87c-3.606,0-5.41,2.41-5.41,7.225v17.921h-7.289V63.838z"/>
	<path clip-path="url(#SVGID_2_)" fill="#006EAB" d="M326.617,56.897h-7.289V50.82h7.289V56.897z M326.617,94.267h-7.289V63.838
		h7.289V94.267z"/>
	<path clip-path="url(#SVGID_2_)" fill="#006EAB" d="M345.842,63.486c5.879,0,9.732,0.939,11.556,2.819
		c1.825,1.877,2.735,5.839,2.735,11.888c0,6.747-0.89,11.171-2.669,13.274c-1.784,2.099-5.54,3.148-11.269,3.148
		c-6.221,0-10.244-0.975-12.082-2.925c-1.834-1.954-2.751-6.25-2.751-12.893c0-6.388,0.899-10.535,2.702-12.447
		C335.87,64.441,339.798,63.486,345.842,63.486 M345.778,69.248c-3.032,0-4.964,0.549-5.79,1.641
		c-0.83,1.091-1.243,3.642-1.243,7.654c0,4.583,0.393,7.447,1.179,8.594c0.784,1.147,2.748,1.721,5.887,1.721
		c3.035,0,4.95-0.607,5.745-1.815c0.798-1.211,1.195-4.117,1.195-8.723c0-3.882-0.413-6.365-1.244-7.447
		C350.681,69.791,348.771,69.248,345.778,69.248"/>
	<path clip-path="url(#SVGID_2_)" fill="#006EAB" d="M383.484,140.098c0-4.822-1.866-9.384-5.684-12.822
		c-4.504-3.85-11.013-4.121-17.328-4.121c-22.402,0-41.142,9.284-53.574,24.142c-11.72-14.037-30.026-24.142-52.142-24.142h-40.102
		c-20.479,0-37.613,8.078-50.187,21.475c-11.814-13.083-29.5-21.475-49.531-21.475H72.463c-42.084,0-68.949,34.769-68.949,65.453
		v140.072c0,4.823,1.866,9.384,5.683,12.821c5.149,4.08,11.186,4.141,17.329,4.141c41.123,0,69.952-31.302,69.952-70.881h47.133
		c0,39.236,28.423,70.881,71.044,70.881h97.921c45.739,0,70.908-34.827,70.908-65.157V140.098z"/>
	<path clip-path="url(#SVGID_2_)" fill="#FFFFFF" d="M314.808,191.818V321.38c24.522-0.433,44.409-19.882,44.409-44.409V147.406
		C334.694,147.84,314.808,167.291,314.808,191.818"/>
	<path clip-path="url(#SVGID_2_)" fill="#FFFFFF" d="M158.35,190.906c-0.426-24.02-19.477-43.5-43.5-43.5H72.26
		c-0.023,0.01-0.045,0.023-0.068,0.033v-0.033c-24.524,0.434-44.411,19.884-44.411,44.412v129.563
		c24.523-0.434,44.411-19.883,44.411-44.41v-26.832h72.963c-0.425-24.02-19.476-43.5-43.5-43.5H72.192v-15.732H158.35z"/>
	<path clip-path="url(#SVGID_2_)" fill="#FFFFFF" d="M256.562,276.977h-43.718v-27.938h68.822
		c-0.425-24.021-19.476-43.501-43.501-43.501h-25.321v-14.632h86.089c-0.425-24.02-19.476-43.5-43.5-43.5h-42.589v-0.015
		c-24.523,0.434-44.411,19.883-44.411,44.411v85.168c0.434,24.523,20.564,44.416,44.411,44.416h88.128
		C300.538,296.863,281.088,276.977,256.562,276.977"/>
</g>
</svg>
